<svg width="20" height="20" viewBox="0 0 20 20" fill="none" xmlns="http://www.w3.org/2000/svg">
<g clip-path="url(#clip0_1454_4392)">
<path d="M0.75 3.25C0.75 2.65326 0.987053 2.08097 1.40901 1.65901C1.83097 1.23705 2.40326 1 3 1H16.5C17.0967 1 17.669 1.23705 18.091 1.65901C18.5129 2.08097 18.75 2.65326 18.75 3.25V5.5C18.75 6.09674 18.5129 6.66903 18.091 7.09099C17.669 7.51295 17.0967 7.75 16.5 7.75H3C2.40326 7.75 1.83097 7.51295 1.40901 7.09099C0.987053 6.66903 0.75 6.09674 0.75 5.5V3.25ZM0.75 14.5C0.75 13.9033 0.987053 13.331 1.40901 12.909C1.83097 12.4871 2.40326 12.25 3 12.25H16.5C17.0967 12.25 17.669 12.4871 18.091 12.909C18.5129 13.331 18.75 13.9033 18.75 14.5V16.75C18.75 17.3467 18.5129 17.919 18.091 18.341C17.669 18.7629 17.0967 19 16.5 19H3C2.40326 19 1.83097 18.7629 1.40901 18.341C0.987053 17.919 0.75 17.3467 0.75 16.75V14.5Z" stroke="#1F1F1F"/>
</g>
<defs>
<clipPath id="clip0_1454_4392">
<rect width="20" height="20" fill="white"/>
</clipPath>
</defs>
</svg>
