<svg width="40" height="40" viewBox="0 0 40 40" fill="none" xmlns="http://www.w3.org/2000/svg">
<g clip-path="url(#clip0_26_81)">
<path d="M16.6667 0C7.48166 0 0 7.48166 0 16.6667C0 25.8517 7.48166 33.3333 16.6667 33.3333C20.6608 33.3333 24.329 31.915 27.2038 29.5605L37.1549 39.5117C37.3085 39.6717 37.4925 39.7994 37.696 39.8873C37.8996 39.9753 38.1186 40.0218 38.3404 40.0241C38.5621 40.0263 38.782 39.9843 38.9873 39.9005C39.1926 39.8167 39.3791 39.6927 39.5359 39.5359C39.6927 39.3791 39.8167 39.1926 39.9005 38.9873C39.9843 38.782 40.0263 38.5621 40.0241 38.3404C40.0218 38.1186 39.9753 37.8996 39.8873 37.696C39.7994 37.4925 39.6717 37.3085 39.5117 37.1549L29.5605 27.2038C31.915 24.329 33.3333 20.6608 33.3333 16.6667C33.3333 7.48166 25.8517 0 16.6667 0ZM16.6667 3.33333C24.0502 3.33333 30 9.28313 30 16.6667C30 24.0502 24.0502 30 16.6667 30C9.28313 30 3.33333 24.0502 3.33333 16.6667C3.33333 9.28313 9.28313 3.33333 16.6667 3.33333Z" fill="black"/>
</g>
<defs>
<clipPath id="clip0_26_81">
<rect width="40" height="40" fill="white"/>
</clipPath>
</defs>
</svg>
