<?xml version="1.0" standalone="no"?>
<!DOCTYPE svg PUBLIC "-//W3C//DTD SVG 20010904//EN"
 "http://www.w3.org/TR/2001/REC-SVG-20010904/DTD/svg10.dtd">
<svg version="1.0" xmlns="http://www.w3.org/2000/svg"
 width="256.000000pt" height="256.000000pt" viewBox="0 0 256.000000 256.000000"
 preserveAspectRatio="xMidYMid meet">

<g transform="translate(0.000000,256.000000) scale(0.100000,-0.100000)"
fill="#000000" stroke="none">
<path d="M550 2257 c-33 -17 -38 -57 -9 -83 18 -16 35 -19 106 -18 l85 1 -6
-46 c-3 -25 -9 -84 -12 -130 -4 -45 -12 -88 -19 -94 -7 -7 -9 -18 -5 -27 4 -8
12 -28 17 -45 10 -35 27 -36 31 -2 3 23 5 24 80 20 89 -5 132 12 170 67 26 39
28 79 7 125 -27 55 -79 69 -194 51 l-54 -8 7 43 c4 24 12 47 19 51 7 4 48 8
92 8 59 0 87 -4 104 -17 23 -16 25 -15 42 6 44 54 -25 82 -156 62 -166 -24
-231 -30 -265 -23 -44 10 -51 36 -13 56 34 18 9 21 -27 3z m356 -216 c43 -26
62 -75 43 -109 -27 -47 -62 -65 -133 -66 -35 -1 -67 2 -71 6 -4 4 -4 45 0 92
8 94 7 93 85 95 28 1 57 -6 76 -18z"/>
<path d="M1755 2138 c-86 -14 -93 -17 -75 -28 17 -11 110 -13 134 -4 16 6 23
45 9 43 -5 -1 -35 -6 -68 -11z"/>
<path d="M1274 2071 c-34 -21 -51 -41 -36 -41 5 0 15 6 21 14 6 8 21 16 32 19
34 9 35 -21 2 -56 -34 -36 -53 -68 -53 -91 0 -24 37 -56 65 -56 29 0 75 40 75
66 0 12 -5 10 -21 -10 -15 -20 -29 -26 -48 -24 -41 5 -38 38 8 92 42 49 50 73
29 94 -17 17 -38 15 -74 -7z"/>
<path d="M1066 2050 c-52 -62 -52 -159 0 -182 21 -10 28 -8 54 17 23 22 30 25
30 12 0 -26 34 -39 56 -22 15 12 16 14 2 9 -25 -8 -40 30 -36 89 4 71 -15 70
-30 -3 -9 -40 -20 -64 -34 -74 -28 -20 -38 -12 -38 32 0 55 29 105 67 118 26
8 30 13 21 22 -22 22 -65 14 -92 -18z"/>
<path d="M1463 2065 c-93 -40 -74 -205 24 -205 49 0 95 55 63 75 -5 3 -10 -2
-10 -13 0 -20 -29 -52 -48 -52 -13 0 -42 39 -42 57 0 7 6 13 14 13 8 0 28 12
45 26 35 29 41 72 15 98 -18 19 -20 19 -61 1z m53 -19 c7 -19 -22 -73 -46 -86
-17 -9 -20 -8 -20 12 0 27 35 88 50 88 6 0 13 -6 16 -14z"/>
<path d="M1590 2070 c-12 -8 -11 -10 8 -10 26 0 27 -9 8 -110 -9 -43 -11 -79
-6 -84 18 -18 36 3 53 62 37 120 73 139 63 32 -3 -39 -7 -76 -9 -82 -1 -7 5
-13 15 -15 11 -3 20 7 28 34 24 73 61 136 73 124 8 -8 7 -28 -1 -74 -17 -93
-17 -97 17 -97 17 0 33 5 36 10 3 6 -3 10 -14 10 -25 0 -25 0 -6 70 33 123 10
174 -49 108 -17 -19 -36 -43 -43 -54 -10 -17 -12 -14 -12 22 -1 76 -39 80 -83
9 l-18 -30 0 31 c0 46 -27 66 -60 44z"/>
<path d="M2175 1985 c-31 -30 -31 -40 -1 -70 l25 -24 -32 -27 c-23 -19 -39
-25 -64 -22 -34 4 -39 -8 -11 -25 24 -16 75 10 104 52 13 20 24 31 24 26 0
-21 17 -35 33 -29 9 3 17 10 17 15 0 4 -7 6 -16 2 -15 -5 -16 0 -12 40 6 50
-5 64 -16 22 -8 -31 -46 -35 -46 -6 0 21 25 51 41 51 6 0 7 5 4 10 -10 16 -24
12 -50 -15z"/>
<path d="M2055 1976 c-29 -29 -33 -76 -9 -100 19 -20 19 -20 39 0 15 15 17 15
29 -1 9 -13 15 -15 20 -7 4 7 2 12 -3 12 -6 0 -11 18 -11 40 0 22 -4 40 -10
40 -5 0 -10 -9 -10 -21 0 -25 -17 -59 -30 -59 -13 0 -13 46 0 71 6 10 18 19
26 19 9 0 14 5 12 12 -8 22 -27 20 -53 -6z"/>
<path d="M1914 1925 c-1 -46 3 -65 12 -65 7 0 14 10 16 22 3 24 28 38 28 15 0
-23 28 -43 42 -29 9 9 9 12 -1 12 -10 0 -12 14 -9 55 5 63 -5 71 -26 20 -18
-41 -31 -45 -34 -9 -1 14 -4 30 -8 35 -13 22 -19 5 -20 -56z"/>
<path d="M1063 1787 c-35 -5 -63 -13 -63 -18 0 -13 60 -21 106 -14 35 5 44 10
44 26 0 10 -6 18 -12 18 -7 -1 -41 -6 -75 -12z"/>
<path d="M594 1730 c-47 -18 -85 -106 -70 -164 3 -14 18 -33 32 -43 26 -17 27
-16 54 14 l28 31 11 -24 c11 -24 44 -33 56 -14 3 6 -1 10 -9 10 -23 0 -30 20
-28 82 2 46 -1 58 -13 58 -10 0 -15 -10 -15 -32 0 -47 -30 -103 -55 -103 -28
0 -31 43 -6 100 16 36 26 47 50 51 17 4 28 10 25 15 -11 18 -39 26 -60 19z"/>
<path d="M771 1714 c-75 -63 -51 -204 36 -204 27 0 73 20 73 32 0 5 -9 4 -20
-2 -85 -46 -133 67 -64 150 29 34 47 31 38 -7 -6 -21 -3 -24 12 -21 25 5 30
35 8 59 -23 26 -47 24 -83 -7z"/>
<path d="M1516 1725 c-22 -12 -31 -13 -37 -4 -4 7 -13 9 -21 6 -11 -3 -20 -56
-36 -198 -26 -231 -26 -235 -6 -243 25 -10 26 -8 19 37 -12 79 30 313 62 349
20 23 49 23 57 1 4 -11 -5 -26 -28 -48 -53 -48 -62 -115 -16 -115 30 0 69 46
75 89 3 20 10 43 14 51 7 15 -4 44 -28 74 -16 20 -19 20 -55 1z m34 -136 c-16
-53 -50 -80 -50 -39 0 26 28 70 45 70 10 0 11 -8 5 -31z"/>
<path d="M319 1723 c-12 -3 -18 -21 -22 -63 -9 -79 -32 -134 -74 -171 -31 -27
-42 -30 -84 -27 -50 3 -54 1 -41 -19 15 -23 62 -34 102 -23 47 13 73 44 101
122 l22 59 13 -38 c8 -21 14 -39 14 -41 0 -2 10 -2 22 0 14 2 31 18 44 41 l22
39 9 -39 c7 -30 14 -39 33 -41 20 -3 23 -1 13 9 -15 15 -16 87 -3 144 6 28 6
42 -3 47 -26 17 -35 5 -52 -61 -9 -37 -26 -83 -37 -102 l-21 -34 -13 30 c-7
17 -13 63 -14 103 0 39 -3 71 -7 71 -5 -1 -15 -3 -24 -6z"/>
<path d="M910 1720 c-12 -8 -11 -10 8 -10 27 0 28 -23 7 -120 -10 -49 -11 -67
-2 -72 21 -13 29 -4 56 68 14 38 32 78 38 89 11 17 14 18 23 5 6 -8 8 -28 5
-45 -17 -89 -18 -125 -2 -125 9 0 20 15 28 38 19 58 58 132 71 132 7 0 9 -17
3 -57 -13 -104 -12 -118 10 -121 11 -1 29 4 40 12 19 15 19 15 -4 9 -23 -6
-24 -5 -17 43 16 116 18 152 7 158 -20 13 -47 -3 -72 -44 -13 -22 -27 -40 -31
-40 -5 0 -8 18 -8 40 0 67 -39 64 -82 -5 l-18 -30 0 27 c0 54 -23 72 -60 48z"/>
<path d="M1293 1720 c-38 -15 -65 -69 -60 -118 9 -81 73 -116 131 -71 25 20
36 59 16 59 -5 0 -10 -9 -10 -20 0 -11 -12 -27 -26 -37 -26 -16 -27 -16 -45 6
-25 31 -24 48 4 56 61 19 92 101 48 125 -23 12 -28 12 -58 0z m57 -29 c0 -21
-46 -81 -61 -81 -13 0 -11 26 5 65 17 39 56 50 56 16z"/>
<path d="M1810 1648 c-6 -7 -17 -22 -25 -33 -14 -20 -14 -20 -15 3 0 12 -6 22
-12 22 -9 0 -14 -17 -15 -49 -1 -26 -3 -54 -5 -61 -2 -7 3 -15 10 -17 7 -3 12
3 12 15 0 11 7 25 16 33 13 10 17 10 25 -2 5 -8 9 -24 9 -36 0 -27 15 -37 36
-25 15 8 15 10 0 15 -9 4 -16 18 -16 33 0 17 -6 28 -20 31 -24 6 -24 6 -5 43
16 31 29 37 40 20 7 -12 25 -4 25 11 0 13 -47 11 -60 -3z"/>
<path d="M2000 1640 c-25 -25 -25 -41 1 -74 11 -14 17 -30 14 -36 -13 -22 -68
-42 -99 -36 l-31 6 24 -20 c31 -26 57 -19 102 30 30 33 37 36 45 22 11 -17 44
-11 44 9 0 8 -5 7 -16 -2 -15 -12 -16 -9 -13 34 4 51 -1 59 -16 25 -6 -13 -18
-24 -28 -26 -28 -6 -19 49 10 64 13 6 20 14 16 17 -12 12 -33 7 -53 -13z"/>
<path d="M1641 1624 c-26 -34 -27 -68 -1 -94 23 -23 39 -25 63 -7 16 11 14 12
-15 12 -30 0 -33 3 -36 31 -2 20 4 39 18 55 15 18 20 20 18 7 -2 -9 2 -17 7
-17 6 -1 10 7 10 17 0 29 -40 26 -64 -4z"/>
<path d="M1881 1624 c-25 -32 -27 -76 -5 -99 15 -15 18 -15 37 2 14 13 21 15
24 6 3 -7 12 -13 21 -12 11 0 12 2 5 6 -8 2 -13 22 -13 44 0 21 -4 39 -10 39
-5 0 -10 -10 -10 -23 0 -28 -23 -62 -37 -54 -17 10 -2 66 23 86 13 10 20 21
17 25 -13 13 -32 5 -52 -20z"/>
<path d="M614 1249 c-71 -20 -117 -105 -95 -172 38 -113 191 -134 251 -34 65
107 -37 241 -156 206z m91 -74 c49 -48 24 -128 -42 -141 -27 -5 -37 -1 -63 24
-39 39 -39 74 -1 113 36 36 73 37 106 4z"/>
<path d="M1154 1249 c-71 -20 -117 -105 -95 -172 38 -113 191 -134 251 -34 65
107 -37 241 -156 206z m91 -74 c49 -48 24 -128 -42 -141 -27 -5 -37 -1 -63 24
-39 39 -39 74 -1 113 36 36 73 37 106 4z"/>
<path d="M151 1237 c-61 -31 -84 -115 -47 -171 25 -39 81 -61 123 -48 31 10
33 9 33 -14 0 -20 5 -24 30 -24 25 0 30 4 30 24 0 23 3 24 30 16 116 -33 192
107 108 197 -26 28 -81 39 -114 24 -15 -6 -24 -7 -24 -1 0 13 -47 13 -55 0 -4
-7 -12 -7 -25 0 -25 13 -60 12 -89 -3z m91 -64 c24 -21 23 -58 -2 -83 -26 -26
-46 -25 -75 5 -29 28 -31 42 -9 73 18 26 60 29 86 5z m182 -5 c9 -12 16 -28
16 -36 0 -18 -46 -62 -65 -62 -22 0 -55 37 -55 62 0 53 74 79 104 36z"/>
<path d="M837 1243 c-4 -3 -7 -15 -7 -25 0 -14 8 -18 40 -18 l40 0 0 -110 0
-110 25 0 25 0 0 109 0 110 43 3 c35 2 43 7 45 26 3 22 2 22 -101 22 -57 0
-107 -3 -110 -7z"/>
<path d="M1356 1234 c-3 -9 -6 -69 -6 -135 l0 -119 29 0 c28 0 30 2 33 48 l3
47 62 5 c78 6 98 24 98 86 0 68 -24 84 -130 84 -66 0 -84 -3 -89 -16z m122
-30 c33 -7 46 -26 37 -55 -5 -15 -16 -19 -56 -19 l-49 0 0 34 c0 43 14 51 68
40z"/>
<path d="M1606 1234 c-3 -9 -6 -69 -6 -135 l0 -119 30 0 c29 0 30 1 30 51 l0
50 53 -3 c47 -3 52 -5 55 -28 7 -63 11 -70 43 -70 l32 0 -7 52 c-4 29 -12 58
-18 65 -8 10 -6 18 6 31 22 25 20 78 -4 102 -17 17 -33 20 -114 20 -76 0 -95
-3 -100 -16z m162 -39 c16 -6 15 -40 -2 -54 -8 -7 -34 -11 -58 -9 -39 3 -43 6
-46 32 -2 16 2 32 10 37 12 8 61 4 96 -6z"/>
<path d="M1880 1115 l0 -135 30 0 30 0 0 135 0 135 -30 0 -30 0 0 -135z"/>
<path d="M1977 1243 c-4 -3 -7 -64 -7 -135 l0 -129 28 3 c27 3 27 4 32 88 l5
85 54 -87 c50 -82 56 -88 87 -88 l34 0 0 135 0 135 -30 0 -30 0 0 -92 0 -93
-60 93 c-47 73 -64 92 -83 92 -13 0 -27 -3 -30 -7z"/>
<path d="M2244 1235 c-10 -24 5 -35 47 -35 l39 0 0 -110 0 -110 30 0 30 0 0
109 0 110 43 3 c35 2 43 7 45 26 3 22 2 22 -113 22 -92 0 -117 -3 -121 -15z"/>
<path d="M1040 875 c0 -11 11 -15 38 -15 21 0 42 -4 48 -9 5 -5 33 -16 62 -26
81 -26 144 -82 184 -162 29 -60 33 -77 33 -150 0 -46 1 -83 3 -83 1 0 14 7 27
16 23 15 25 23 25 91 0 66 -3 79 -25 105 -23 27 -30 52 -26 86 1 7 -15 28 -35
47 -32 30 -36 39 -31 69 5 32 4 34 -31 40 -20 3 -90 6 -154 6 -98 0 -118 -3
-118 -15z"/>
<path d="M1376 865 c11 -28 84 -50 84 -26 0 6 19 11 42 13 23 2 43 9 46 16 3
9 -19 12 -87 12 -77 0 -90 -2 -85 -15z"/>
<path d="M1158 729 c-27 -10 -28 -13 -28 -90 0 -45 4 -79 10 -79 16 0 40 -57
40 -95 0 -19 5 -35 10 -35 6 0 22 -11 35 -25 26 -25 32 -68 15 -95 -7 -12 -13
-10 -34 13 -15 16 -36 27 -51 27 -23 0 -25 -3 -25 -49 0 -53 -8 -61 -61 -61
-19 0 -29 -5 -29 -15 0 -13 14 -15 87 -13 l87 3 28 46 c42 67 45 106 14 152
-14 21 -26 41 -26 44 0 3 18 3 40 0 36 -5 41 -3 46 20 9 36 -2 158 -18 190
-26 52 -90 81 -140 62z"/>
<path d="M1353 328 c-26 -30 -49 -67 -58 -95 -6 -23 -6 -23 119 -23 105 0 126
2 126 15 0 11 -11 15 -40 15 l-40 0 0 49 c0 53 -8 61 -59 61 -16 0 -36 -10
-48 -22z"/>
</g>
</svg>
