<svg width="19" height="19" viewBox="0 0 19 19" fill="none" xmlns="http://www.w3.org/2000/svg">
<path d="M2.07335 6.08108C2.25468 5.82903 2.57361 5.68093 2.88775 5.70209C3.11468 5.71332 3.33415 5.81101 3.49495 5.96799C5.49682 7.92774 7.49736 9.8888 9.4995 11.8483C11.4974 9.89298 13.4942 7.9361 15.4913 5.98C15.6334 5.83843 15.8211 5.7397 16.0225 5.71123C16.3182 5.66421 16.6329 5.76713 16.8398 5.97974C17.1046 6.24329 17.1758 6.66851 17.0137 7.00206C16.9582 7.12221 16.8713 7.22512 16.7747 7.31576C14.5651 9.47846 12.3576 11.6433 10.1478 13.8054C9.92324 14.0167 9.58724 14.1087 9.2843 14.0348C9.11017 13.9948 8.94963 13.9052 8.82457 13.7804C6.60323 11.6036 4.38029 9.42857 2.15975 7.25098C1.85014 6.94695 1.81201 6.4256 2.07335 6.08108Z" fill="#CACBD3"/>
</svg>
