<svg width="20" height="19" viewBox="0 0 20 19" fill="none" xmlns="http://www.w3.org/2000/svg">
<path d="M17.4267 12.9189C17.2453 13.171 16.9264 13.3191 16.6123 13.2979C16.3853 13.2867 16.1659 13.189 16.0051 13.032C14.0032 11.0723 12.0026 9.1112 10.0005 7.15171C8.00262 9.10702 6.00582 11.0639 4.00874 13.02C3.86661 13.1616 3.67888 13.2603 3.47754 13.2888C3.18181 13.3358 2.86714 13.2329 2.66021 13.0203C2.3954 12.7567 2.3242 12.3315 2.48634 11.9979C2.54181 11.8778 2.62874 11.7749 2.72527 11.6842C4.93488 9.52154 7.14236 7.35674 9.35223 5.19456C9.57676 4.98326 9.91276 4.89132 10.2157 4.96524C10.3898 5.0052 10.5504 5.09479 10.6754 5.21964C12.8968 7.39645 15.1197 9.57143 17.3403 11.749C17.6499 12.0531 17.688 12.5744 17.4267 12.9189Z" fill="black"/>
</svg>
