<svg width="20" height="20" viewBox="0 0 20 20" fill="none" xmlns="http://www.w3.org/2000/svg">
<g clip-path="url(#clip0_32_335)">
<mask id="path-1-inside-1_32_335" fill="white">
<path d="M8.33333 0C3.74083 0 0 3.74083 0 8.33333C0 12.9258 3.74083 16.6667 8.33333 16.6667C10.3304 16.6667 12.1645 15.9575 13.6019 14.7803L18.5775 19.7559C18.6543 19.8358 18.7462 19.8997 18.848 19.9437C18.9498 19.9877 19.0593 20.0109 19.1702 20.012C19.281 20.0132 19.391 19.9922 19.4937 19.9502C19.5963 19.9083 19.6896 19.8464 19.768 19.768C19.8464 19.6896 19.9083 19.5963 19.9502 19.4937C19.9922 19.391 20.0132 19.281 20.012 19.1702C20.0109 19.0593 19.9877 18.9498 19.9437 18.848C19.8997 18.7462 19.8358 18.6543 19.7559 18.5775L14.7803 13.6019C15.9575 12.1645 16.6667 10.3304 16.6667 8.33333C16.6667 3.74083 12.9258 0 8.33333 0ZM8.33333 1.66667C12.0251 1.66667 15 4.64156 15 8.33333C15 12.0251 12.0251 15 8.33333 15C4.64156 15 1.66667 12.0251 1.66667 8.33333C1.66667 4.64156 4.64156 1.66667 8.33333 1.66667Z"/>
</mask>
<path d="M8.33333 0C3.74083 0 0 3.74083 0 8.33333C0 12.9258 3.74083 16.6667 8.33333 16.6667C10.3304 16.6667 12.1645 15.9575 13.6019 14.7803L18.5775 19.7559C18.6543 19.8358 18.7462 19.8997 18.848 19.9437C18.9498 19.9877 19.0593 20.0109 19.1702 20.012C19.281 20.0132 19.391 19.9922 19.4937 19.9502C19.5963 19.9083 19.6896 19.8464 19.768 19.768C19.8464 19.6896 19.9083 19.5963 19.9502 19.4937C19.9922 19.391 20.0132 19.281 20.012 19.1702C20.0109 19.0593 19.9877 18.9498 19.9437 18.848C19.8997 18.7462 19.8358 18.6543 19.7559 18.5775L14.7803 13.6019C15.9575 12.1645 16.6667 10.3304 16.6667 8.33333C16.6667 3.74083 12.9258 0 8.33333 0ZM8.33333 1.66667C12.0251 1.66667 15 4.64156 15 8.33333C15 12.0251 12.0251 15 8.33333 15C4.64156 15 1.66667 12.0251 1.66667 8.33333C1.66667 4.64156 4.64156 1.66667 8.33333 1.66667Z" fill="white"/>
<path d="M13.6019 14.7803L15.0161 13.3661L13.7356 12.0856L12.3347 13.233L13.6019 14.7803ZM18.5775 19.7559L20.0202 18.3707L20.0061 18.356L19.9917 18.3416L18.5775 19.7559ZM19.7559 18.5775L18.3416 19.9917L18.356 20.0061L18.3707 20.0202L19.7559 18.5775ZM14.7803 13.6019L13.233 12.3347L12.0856 13.7356L13.3661 15.0161L14.7803 13.6019ZM8.33333 -2C2.63626 -2 -2 2.63626 -2 8.33333H2C2 4.8454 4.8454 2 8.33333 2V-2ZM-2 8.33333C-2 14.0304 2.63626 18.6667 8.33333 18.6667V14.6667C4.8454 14.6667 2 11.8213 2 8.33333H-2ZM8.33333 18.6667C10.8128 18.6667 13.0903 17.7844 14.8691 16.3276L12.3347 13.233C11.2386 14.1306 9.84807 14.6667 8.33333 14.6667V18.6667ZM12.1877 16.1945L17.1633 21.1701L19.9917 18.3416L15.0161 13.3661L12.1877 16.1945ZM17.1348 21.141C17.3958 21.4129 17.7085 21.63 18.0545 21.7795L19.6415 18.1078C19.7839 18.1694 19.9127 18.2588 20.0202 18.3707L17.1348 21.141ZM18.0545 21.7795C18.4005 21.9291 18.7729 22.0081 19.1498 22.0119L19.1905 18.0121C19.3457 18.0137 19.499 18.0462 19.6415 18.1078L18.0545 21.7795ZM19.1498 22.0119C19.5268 22.0158 19.9007 21.9443 20.2496 21.8019L18.7377 18.0986C18.8814 18.04 19.0353 18.0106 19.1905 18.0121L19.1498 22.0119ZM20.2496 21.8019C20.5986 21.6594 20.9156 21.4487 21.1822 21.1822L18.3538 18.3538C18.4635 18.244 18.594 18.1573 18.7377 18.0986L20.2496 21.8019ZM21.1822 21.1822C21.4487 20.9156 21.6594 20.5986 21.8019 20.2496L18.0986 18.7377C18.1573 18.594 18.244 18.4635 18.3538 18.3538L21.1822 21.1822ZM21.8019 20.2496C21.9443 19.9007 22.0158 19.5268 22.0119 19.1498L18.0121 19.1905C18.0106 19.0353 18.04 18.8814 18.0986 18.7377L21.8019 20.2496ZM22.0119 19.1498C22.0081 18.7729 21.9291 18.4005 21.7795 18.0545L18.1078 19.6415C18.0462 19.499 18.0137 19.3457 18.0121 19.1905L22.0119 19.1498ZM21.7795 18.0545C21.63 17.7085 21.4129 17.3958 21.141 17.1348L18.3707 20.0202C18.2588 19.9127 18.1694 19.7839 18.1078 19.6415L21.7795 18.0545ZM21.1701 17.1633L16.1945 12.1877L13.3661 15.0161L18.3416 19.9917L21.1701 17.1633ZM16.3276 14.8691C17.7844 13.0903 18.6667 10.8128 18.6667 8.33333H14.6667C14.6667 9.84807 14.1306 11.2386 13.233 12.3347L16.3276 14.8691ZM18.6667 8.33333C18.6667 2.63626 14.0304 -2 8.33333 -2V2C11.8213 2 14.6667 4.8454 14.6667 8.33333H18.6667ZM8.33333 3.66667C10.9205 3.66667 13 5.74613 13 8.33333H17C17 3.53699 13.1297 -0.333334 8.33333 -0.333334V3.66667ZM13 8.33333C13 10.9205 10.9205 13 8.33333 13V17C13.1297 17 17 13.1297 17 8.33333H13ZM8.33333 13C5.74613 13 3.66667 10.9205 3.66667 8.33333H-0.333334C-0.333334 13.1297 3.53699 17 8.33333 17V13ZM3.66667 8.33333C3.66667 5.74613 5.74613 3.66667 8.33333 3.66667V-0.333334C3.53699 -0.333334 -0.333334 3.53699 -0.333334 8.33333H3.66667Z" fill="white" mask="url(#path-1-inside-1_32_335)"/>
</g>
<defs>
<clipPath id="clip0_32_335">
<rect width="20" height="20" fill="white"/>
</clipPath>
</defs>
</svg>
