<svg width="20" height="21" viewBox="0 0 20 21" fill="none" xmlns="http://www.w3.org/2000/svg">
<path d="M8.20466 1.47998H11.6115C11.7561 1.48658 11.9015 1.48878 12.0445 1.51358C12.4689 1.57958 12.8721 1.76778 13.2001 2.04418C13.6819 2.44838 13.9875 3.05338 14.0297 3.68078C14.0477 4.06038 14.0345 4.44018 14.0351 4.81978C15.0165 4.81898 15.9979 4.82358 16.9793 4.81498C17.1593 4.81638 17.3395 4.81218 17.5195 4.81678C17.7313 4.82118 17.9385 4.92658 18.0643 5.09718C18.1863 5.26098 18.2309 5.47898 18.1863 5.67798C18.1265 5.96258 17.8697 6.19278 17.5799 6.21818C17.3335 6.22378 17.0869 6.23018 16.8407 6.22098C15.7871 6.21478 14.7339 6.22838 13.6803 6.22498C13.2537 6.22278 12.8269 6.23018 12.4003 6.21978C11.2531 6.22098 10.1059 6.21838 8.95886 6.22098C8.23266 6.23018 7.50606 6.22238 6.77986 6.22498C6.07966 6.22258 5.37946 6.23038 4.67946 6.21978C4.07266 6.22178 3.46566 6.21638 2.85886 6.22258C2.62606 6.22038 2.37406 6.25838 2.16206 6.13798C1.91846 6.01158 1.77306 5.73038 1.79946 5.45858C1.81686 5.20238 1.99046 4.96658 2.22806 4.87018C2.37626 4.80518 2.54166 4.81338 2.69986 4.81978C3.78826 4.82018 4.87666 4.81998 5.96506 4.81978C5.97066 4.54658 5.95186 4.27358 5.96406 4.00058C5.96806 3.88118 5.95966 3.76138 5.97226 3.64238C6.01166 3.19778 6.17906 2.76498 6.45106 2.41078C6.78966 1.96398 7.29406 1.64938 7.84206 1.53438C7.96126 1.50618 8.08386 1.49958 8.20466 1.47998ZM8.01066 2.94578C7.71246 3.05118 7.47486 3.31198 7.39886 3.61898C7.35286 3.79578 7.37106 3.97978 7.36506 4.16018C7.36526 4.37838 7.36506 4.59658 7.36506 4.81478C9.12066 4.81338 10.8763 4.81838 12.6317 4.81238C12.6283 4.68198 12.6307 4.55138 12.6301 4.42078C12.6265 4.18078 12.6511 3.93938 12.6177 3.70058C12.5645 3.35578 12.3083 3.05278 11.9777 2.94178C11.8121 2.88298 11.6337 2.88458 11.4605 2.88498C10.4601 2.88498 9.45986 2.88518 8.45966 2.88498C8.30846 2.88718 8.15366 2.89098 8.01066 2.94578Z" fill="#A12232"/>
<path d="M3.46484 6.20011C3.93324 6.19931 4.40144 6.20051 4.86964 6.19971C4.87084 9.70611 4.86944 13.2129 4.87024 16.7195C4.86504 16.8923 4.86244 17.0655 4.87244 17.2383C4.89564 17.6001 5.14464 17.9343 5.48324 18.0631C5.62724 18.1227 5.78464 18.1343 5.93884 18.1349C8.61264 18.1349 11.2864 18.1349 13.9602 18.1349C14.1332 18.1357 14.311 18.1373 14.4762 18.0779C14.8482 17.9567 15.119 17.5897 15.13 17.1995C15.13 13.5665 15.1298 9.93351 15.13 6.30071C15.1296 6.26691 15.129 6.23331 15.1282 6.19991C15.5974 6.19991 16.0666 6.19991 16.5358 6.19991C16.5338 9.59311 16.5356 12.9863 16.535 16.3795C16.5314 16.7223 16.5522 17.0655 16.5238 17.4079C16.458 18.0983 16.0688 18.7503 15.4906 19.1337C15.0948 19.4005 14.6174 19.5425 14.1402 19.5361C11.507 19.5333 8.87324 19.5359 6.23984 19.5347C5.91904 19.5431 5.59284 19.5485 5.27924 19.4711C4.62744 19.3187 4.05004 18.8733 3.73984 18.2797C3.57304 17.9665 3.47904 17.6151 3.46524 17.2607C3.46484 13.5739 3.46544 9.88691 3.46484 6.20011Z" fill="#A12232"/>
<path d="M8.20957 8.97352C8.34117 8.95352 8.47917 8.96312 8.60237 9.01632C8.80677 9.09872 8.96817 9.28232 9.01717 9.49792C9.04297 9.61712 9.04237 9.73992 9.03537 9.86092C9.03477 10.3543 9.03537 10.8479 9.03517 11.3413C9.03257 11.7275 9.04397 12.1137 9.04017 12.5001C9.04397 13.2403 9.03277 13.9805 9.03497 14.7209C9.01897 15.0727 8.69337 15.3769 8.34077 15.3705C8.01817 15.3819 7.71337 15.1367 7.64637 14.8229C7.62577 14.7165 7.63037 14.6077 7.63017 14.4999C7.63017 13.8601 7.63017 13.2203 7.63017 12.5805C7.62657 12.1403 7.63797 11.7005 7.63517 11.2603C7.63797 10.8205 7.62637 10.3811 7.63017 9.94152C7.63497 9.76172 7.60937 9.57312 7.68117 9.40292C7.76617 9.18032 7.97557 9.01352 8.20957 8.97352Z" fill="#A12232"/>
<path d="M11.5302 8.97557C11.8294 8.91477 12.161 9.06897 12.2936 9.34637C12.3462 9.44937 12.3724 9.56497 12.3654 9.68057C12.3646 11.361 12.3652 13.0412 12.365 14.7214C12.3534 15.0176 12.1214 15.2868 11.8328 15.3498C11.651 15.3932 11.4506 15.365 11.2922 15.2642C11.0878 15.1388 10.9566 14.9004 10.9646 14.6602C10.9656 14.2532 10.9648 13.846 10.965 13.439C10.9686 12.9924 10.9568 12.5458 10.96 12.099C10.9576 11.2862 10.9694 10.4734 10.9646 9.66037C10.9552 9.33557 11.2124 9.03217 11.5302 8.97557Z" fill="#A12232"/>
</svg>
