<svg width="280" height="280" viewBox="0 0 280 280" fill="none" xmlns="http://www.w3.org/2000/svg">
<rect width="280" height="280" fill="#A6A6A6"/>
<path d="M91.504 149.812C89.584 146.9 88.096 143.54 87.04 139.732C86.016 135.892 85.504 131.764 85.504 127.348C85.504 122.932 86.016 118.804 87.04 114.964C88.096 111.092 89.584 107.732 91.504 104.884H98.656C96.64 108.5 95.168 112.148 94.24 115.828C93.312 119.476 92.848 123.316 92.848 127.348C92.848 131.38 93.312 135.236 94.24 138.916C95.168 142.564 96.64 146.196 98.656 149.812H91.504ZM102.132 135.508V129.508L122.724 122.02V125.38L102.132 117.892V111.892L124.98 120.58V126.82L102.132 135.508ZM127.891 144.82V140.5H151.891V144.82H127.891ZM177.715 135.508L154.867 126.82V120.58L177.715 111.892V117.892L157.123 125.38V122.02L177.715 129.508V135.508ZM188.257 149.812H181.105C183.185 146.196 184.673 142.564 185.569 138.916C186.497 135.236 186.961 131.38 186.961 127.348C186.961 123.316 186.497 119.476 185.569 115.828C184.673 112.148 183.185 108.5 181.105 104.884H188.257C190.241 107.732 191.745 111.092 192.769 114.964C193.793 118.804 194.305 122.932 194.305 127.348C194.305 131.764 193.793 135.892 192.769 139.732C191.745 143.54 190.241 146.9 188.257 149.812Z" fill="black"/>
<path d="M37.48 181.5V167.5H40.04V177.44L47.56 167.5H49.98V181.5H47.42V171.58L39.9 181.5H37.48ZM57.0053 181.68C56.192 181.68 55.3853 181.587 54.5853 181.4C53.7986 181.2 53.0853 180.92 52.4453 180.56L53.1453 178.7C53.6653 178.993 54.252 179.22 54.9053 179.38C55.5586 179.54 56.212 179.62 56.8653 179.62C57.4253 179.62 57.9053 179.567 58.3053 179.46C58.7053 179.34 59.012 179.167 59.2253 178.94C59.452 178.713 59.5653 178.453 59.5653 178.16C59.5653 177.733 59.3786 177.413 59.0053 177.2C58.6453 176.973 58.1253 176.86 57.4453 176.86H55.3853V175.18H57.2453C57.672 175.18 58.032 175.133 58.3253 175.04C58.632 174.947 58.8653 174.807 59.0253 174.62C59.1853 174.433 59.2653 174.213 59.2653 173.96C59.2653 173.707 59.1653 173.487 58.9653 173.3C58.7786 173.1 58.5053 172.953 58.1453 172.86C57.7853 172.753 57.352 172.7 56.8453 172.7C56.312 172.7 55.7586 172.767 55.1853 172.9C54.6253 173.033 54.052 173.227 53.4653 173.48L52.8253 171.64C53.5053 171.333 54.1653 171.1 54.8053 170.94C55.4586 170.767 56.1053 170.673 56.7453 170.66C57.7186 170.62 58.5853 170.72 59.3453 170.96C60.1053 171.2 60.7053 171.547 61.1453 172C61.5853 172.453 61.8053 172.987 61.8053 173.6C61.8053 174.107 61.6453 174.567 61.3253 174.98C61.0186 175.38 60.592 175.693 60.0453 175.92C59.512 176.147 58.8986 176.26 58.2053 176.26L58.2853 175.72C59.472 175.72 60.4053 175.96 61.0853 176.44C61.7653 176.907 62.1053 177.547 62.1053 178.36C62.1053 179.013 61.8853 179.593 61.4453 180.1C61.0053 180.593 60.3986 180.98 59.6253 181.26C58.8653 181.54 57.992 181.68 57.0053 181.68ZM69.44 181.64C68.3467 181.64 67.3733 181.407 66.52 180.94C65.6667 180.46 64.9933 179.807 64.5 178.98C64.0067 178.153 63.76 177.213 63.76 176.16C63.76 175.093 64.0067 174.153 64.5 173.34C64.9933 172.513 65.6667 171.867 66.52 171.4C67.3733 170.933 68.3467 170.7 69.44 170.7C70.5467 170.7 71.5267 170.933 72.38 171.4C73.2467 171.867 73.92 172.507 74.4 173.32C74.8933 174.133 75.14 175.08 75.14 176.16C75.14 177.213 74.8933 178.153 74.4 178.98C73.92 179.807 73.2467 180.46 72.38 180.94C71.5267 181.407 70.5467 181.64 69.44 181.64ZM69.44 179.5C70.0533 179.5 70.6 179.367 71.08 179.1C71.56 178.833 71.9333 178.447 72.2 177.94C72.48 177.433 72.62 176.84 72.62 176.16C72.62 175.467 72.48 174.873 72.2 174.38C71.9333 173.873 71.56 173.487 71.08 173.22C70.6 172.953 70.06 172.82 69.46 172.82C68.8467 172.82 68.3 172.953 67.82 173.22C67.3533 173.487 66.98 173.873 66.7 174.38C66.42 174.873 66.28 175.467 66.28 176.16C66.28 176.84 66.42 177.433 66.7 177.94C66.98 178.447 67.3533 178.833 67.82 179.1C68.3 179.367 68.84 179.5 69.44 179.5ZM82.7097 181.7C81.8297 181.7 81.043 181.567 80.3497 181.3C79.6564 181.033 79.0564 180.627 78.5497 180.08C78.0564 179.52 77.6764 178.813 77.4097 177.96C77.143 177.107 77.0097 176.093 77.0097 174.92C77.0097 174.067 77.083 173.287 77.2297 172.58C77.3764 171.873 77.5964 171.24 77.8897 170.68C78.183 170.107 78.5497 169.6 78.9897 169.16C79.443 168.72 79.9697 168.353 80.5697 168.06C81.1697 167.767 81.8497 167.54 82.6097 167.38L87.5697 166.32L87.9297 168.56L83.4297 169.48C83.1764 169.533 82.8697 169.613 82.5097 169.72C82.163 169.813 81.803 169.96 81.4297 170.16C81.0697 170.347 80.7297 170.62 80.4097 170.98C80.103 171.327 79.8497 171.78 79.6497 172.34C79.463 172.887 79.3697 173.573 79.3697 174.4C79.3697 174.653 79.3764 174.847 79.3897 174.98C79.4164 175.1 79.4364 175.233 79.4497 175.38C79.4764 175.513 79.4897 175.713 79.4897 175.98L78.5497 175C78.8164 174.32 79.183 173.74 79.6497 173.26C80.1297 172.767 80.683 172.393 81.3097 172.14C81.9497 171.873 82.643 171.74 83.3897 171.74C84.3897 171.74 85.2764 171.947 86.0497 172.36C86.823 172.773 87.4297 173.353 87.8697 174.1C88.3097 174.847 88.5297 175.693 88.5297 176.64C88.5297 177.627 88.2897 178.5 87.8097 179.26C87.3297 180.02 86.6497 180.62 85.7697 181.06C84.903 181.487 83.883 181.7 82.7097 181.7ZM82.9097 179.68C83.5097 179.68 84.0364 179.553 84.4897 179.3C84.9564 179.033 85.3164 178.673 85.5697 178.22C85.8364 177.767 85.9697 177.26 85.9697 176.7C85.9697 176.14 85.8364 175.653 85.5697 175.24C85.3164 174.813 84.9564 174.473 84.4897 174.22C84.0364 173.967 83.4964 173.84 82.8697 173.84C82.2697 173.84 81.7297 173.96 81.2497 174.2C80.783 174.44 80.4164 174.773 80.1497 175.2C79.8964 175.613 79.7697 176.093 79.7697 176.64C79.7697 177.2 79.903 177.713 80.1697 178.18C80.4364 178.647 80.803 179.013 81.2697 179.28C81.7497 179.547 82.2964 179.68 82.9097 179.68ZM96.8695 181.64C96.0029 181.64 95.2095 181.44 94.4895 181.04C93.7829 180.64 93.2162 180.04 92.7895 179.24C92.3762 178.427 92.1695 177.4 92.1695 176.16C92.1695 174.907 92.3695 173.88 92.7695 173.08C93.1829 172.28 93.7429 171.687 94.4495 171.3C95.1562 170.9 95.9629 170.7 96.8695 170.7C97.9229 170.7 98.8495 170.927 99.6495 171.38C100.463 171.833 101.103 172.467 101.57 173.28C102.05 174.093 102.29 175.053 102.29 176.16C102.29 177.267 102.05 178.233 101.57 179.06C101.103 179.873 100.463 180.507 99.6495 180.96C98.8495 181.413 97.9229 181.64 96.8695 181.64ZM90.9495 185.38V170.82H93.3295V173.34L93.2495 176.18L93.4495 179.02V185.38H90.9495ZM96.5895 179.5C97.1895 179.5 97.7229 179.367 98.1895 179.1C98.6695 178.833 99.0495 178.447 99.3295 177.94C99.6095 177.433 99.7495 176.84 99.7495 176.16C99.7495 175.467 99.6095 174.873 99.3295 174.38C99.0495 173.873 98.6695 173.487 98.1895 173.22C97.7229 172.953 97.1895 172.82 96.5895 172.82C95.9895 172.82 95.4495 172.953 94.9695 173.22C94.4895 173.487 94.1095 173.873 93.8295 174.38C93.5495 174.873 93.4095 175.467 93.4095 176.16C93.4095 176.84 93.5495 177.433 93.8295 177.94C94.1095 178.447 94.4895 178.833 94.9695 179.1C95.4495 179.367 95.9895 179.5 96.5895 179.5ZM111.121 181.5V179.34L110.981 178.88V175.1C110.981 174.367 110.761 173.8 110.321 173.4C109.881 172.987 109.214 172.78 108.321 172.78C107.721 172.78 107.128 172.873 106.541 173.06C105.968 173.247 105.481 173.507 105.081 173.84L104.101 172.02C104.674 171.58 105.354 171.253 106.141 171.04C106.941 170.813 107.768 170.7 108.621 170.7C110.168 170.7 111.361 171.073 112.201 171.82C113.054 172.553 113.481 173.693 113.481 175.24V181.5H111.121ZM107.761 181.64C106.961 181.64 106.261 181.507 105.661 181.24C105.061 180.96 104.594 180.58 104.261 180.1C103.941 179.607 103.781 179.053 103.781 178.44C103.781 177.84 103.921 177.3 104.201 176.82C104.494 176.34 104.968 175.96 105.621 175.68C106.274 175.4 107.141 175.26 108.221 175.26H111.321V176.92H108.401C107.548 176.92 106.974 177.06 106.681 177.34C106.388 177.607 106.241 177.94 106.241 178.34C106.241 178.793 106.421 179.153 106.781 179.42C107.141 179.687 107.641 179.82 108.281 179.82C108.894 179.82 109.441 179.68 109.921 179.4C110.414 179.12 110.768 178.707 110.981 178.16L111.401 179.66C111.161 180.287 110.728 180.773 110.101 181.12C109.488 181.467 108.708 181.64 107.761 181.64ZM129.315 181.5L126.195 176.38L128.235 175.12L132.295 181.5H129.315ZM124.175 177.22V175.14H127.755V177.22H124.175ZM128.475 176.46L126.115 176.18L129.355 170.82H132.015L128.475 176.46ZM118.035 181.5H115.075L119.115 175.12L121.155 176.38L118.035 181.5ZM124.915 181.5H122.435V170.82H124.915V181.5ZM123.175 177.22H119.615V175.14H123.175V177.22ZM118.875 176.46L115.335 170.82H117.995L121.215 176.18L118.875 176.46ZM138.781 181.64C137.594 181.64 136.554 181.407 135.661 180.94C134.781 180.46 134.094 179.807 133.601 178.98C133.121 178.153 132.881 177.213 132.881 176.16C132.881 175.093 133.114 174.153 133.581 173.34C134.061 172.513 134.714 171.867 135.541 171.4C136.381 170.933 137.334 170.7 138.401 170.7C139.441 170.7 140.368 170.927 141.181 171.38C141.994 171.833 142.634 172.473 143.101 173.3C143.568 174.127 143.801 175.1 143.801 176.22C143.801 176.327 143.794 176.447 143.781 176.58C143.781 176.713 143.774 176.84 143.761 176.96H134.861V175.3H142.441L141.461 175.82C141.474 175.207 141.348 174.667 141.081 174.2C140.814 173.733 140.448 173.367 139.981 173.1C139.528 172.833 139.001 172.7 138.401 172.7C137.788 172.7 137.248 172.833 136.781 173.1C136.328 173.367 135.968 173.74 135.701 174.22C135.448 174.687 135.321 175.24 135.321 175.88V176.28C135.321 176.92 135.468 177.487 135.761 177.98C136.054 178.473 136.468 178.853 137.001 179.12C137.534 179.387 138.148 179.52 138.841 179.52C139.441 179.52 139.981 179.427 140.461 179.24C140.941 179.053 141.368 178.76 141.741 178.36L143.081 179.9C142.601 180.46 141.994 180.893 141.261 181.2C140.541 181.493 139.714 181.64 138.781 181.64ZM146.535 181.5V170.82H149.035V175.16H154.415V170.82H156.915V181.5H154.415V177.28H149.035V181.5H146.535ZM160.266 181.5V170.82H162.766V177.86L168.666 170.82H170.946V181.5H168.446V174.46L162.566 181.5H160.266ZM181.089 181.5V177.86L181.449 178.28H178.249C176.782 178.28 175.629 177.973 174.789 177.36C173.962 176.733 173.549 175.833 173.549 174.66C173.549 173.407 173.989 172.453 174.869 171.8C175.762 171.147 176.949 170.82 178.429 170.82H183.329V181.5H181.089ZM173.409 181.5L176.289 177.42H178.849L176.089 181.5H173.409ZM181.089 177.06V172.26L181.449 172.92H178.509C177.736 172.92 177.136 173.067 176.709 173.36C176.296 173.64 176.089 174.1 176.089 174.74C176.089 175.94 176.869 176.54 178.429 176.54H181.449L181.089 177.06ZM192.219 181.5V170.82H194.719V175.16H200.099V170.82H202.599V181.5H200.099V177.28H194.719V181.5H192.219ZM210.93 181.64C209.743 181.64 208.703 181.407 207.81 180.94C206.93 180.46 206.243 179.807 205.75 178.98C205.27 178.153 205.03 177.213 205.03 176.16C205.03 175.093 205.263 174.153 205.73 173.34C206.21 172.513 206.863 171.867 207.69 171.4C208.53 170.933 209.483 170.7 210.55 170.7C211.59 170.7 212.516 170.927 213.33 171.38C214.143 171.833 214.783 172.473 215.25 173.3C215.716 174.127 215.95 175.1 215.95 176.22C215.95 176.327 215.943 176.447 215.93 176.58C215.93 176.713 215.923 176.84 215.91 176.96H207.01V175.3H214.59L213.61 175.82C213.623 175.207 213.496 174.667 213.23 174.2C212.963 173.733 212.596 173.367 212.13 173.1C211.676 172.833 211.15 172.7 210.55 172.7C209.936 172.7 209.396 172.833 208.93 173.1C208.476 173.367 208.116 173.74 207.85 174.22C207.596 174.687 207.47 175.24 207.47 175.88V176.28C207.47 176.92 207.616 177.487 207.91 177.98C208.203 178.473 208.616 178.853 209.15 179.12C209.683 179.387 210.296 179.52 210.99 179.52C211.59 179.52 212.13 179.427 212.61 179.24C213.09 179.053 213.516 178.76 213.89 178.36L215.23 179.9C214.75 180.46 214.143 180.893 213.41 181.2C212.69 181.493 211.863 181.64 210.93 181.64ZM220.494 181.5V172.34L221.074 172.94H216.734V170.82H226.734V172.94H222.414L222.994 172.34V181.5H220.494ZM234.835 174.02C234.381 174.02 233.995 173.867 233.675 173.56C233.355 173.24 233.195 172.84 233.195 172.36C233.195 171.853 233.355 171.453 233.675 171.16C233.995 170.853 234.381 170.7 234.835 170.7C235.288 170.7 235.675 170.853 235.995 171.16C236.315 171.453 236.475 171.853 236.475 172.36C236.475 172.84 236.315 173.24 235.995 173.56C235.675 173.867 235.288 174.02 234.835 174.02ZM234.835 181.64C234.381 181.64 233.995 181.487 233.675 181.18C233.355 180.86 233.195 180.46 233.195 179.98C233.195 179.473 233.355 179.073 233.675 178.78C233.995 178.473 234.381 178.32 234.835 178.32C235.288 178.32 235.675 178.473 235.995 178.78C236.315 179.073 236.475 179.473 236.475 179.98C236.475 180.46 236.315 180.86 235.995 181.18C235.675 181.487 235.288 181.64 234.835 181.64ZM241.397 185.38C240.611 184.167 240.004 182.767 239.577 181.18C239.164 179.58 238.957 177.86 238.957 176.02C238.957 174.18 239.164 172.46 239.577 170.86C240.004 169.247 240.611 167.847 241.397 166.66H243.777C242.964 168.127 242.364 169.627 241.977 171.16C241.604 172.68 241.417 174.3 241.417 176.02C241.417 177.74 241.604 179.367 241.977 180.9C242.364 182.42 242.964 183.913 243.777 185.38H241.397Z" fill="black"/>
</svg>
